<mxfile host="app.diagrams.net" agent="Mozilla/5.0 (Macintosh; Intel Mac OS X 10_15_7) AppleWebKit/537.36 (KHTML, like Gecko) Chrome/138.0.0.0 Safari/537.36" version="28.0.4">
  <diagram name="Page-1" id="SuKzWDR_CGbWs1CFxJfN">
    <mxGraphModel dx="925" dy="626" grid="1" gridSize="10" guides="1" tooltips="1" connect="1" arrows="1" fold="1" page="1" pageScale="1" pageWidth="827" pageHeight="1169" math="0" shadow="0">
      <root>
        <mxCell id="0" />
        <mxCell id="1" parent="0" />
        <mxCell id="Qq9tggKv9AlEWRZSAi5j-1" value="Database/Prompts" style="rounded=0;whiteSpace=wrap;html=1;fillColor=#d5e8d4;strokeColor=#82b366;gradientColor=#97d077;" vertex="1" parent="1">
          <mxGeometry x="120" y="100" width="120" height="60" as="geometry" />
        </mxCell>
        <mxCell id="Qq9tggKv9AlEWRZSAi5j-3" value="Compaction using LLM" style="rounded=0;whiteSpace=wrap;html=1;fillColor=#dae8fc;strokeColor=#6c8ebf;" vertex="1" parent="1">
          <mxGeometry x="280" y="540" width="120" height="70" as="geometry" />
        </mxCell>
        <mxCell id="Qq9tggKv9AlEWRZSAi5j-5" value="Token Counter &amp;gt; MAX TOKENS?&amp;nbsp;" style="rhombus;whiteSpace=wrap;html=1;fillColor=#e1d5e7;strokeColor=#9673a6;" vertex="1" parent="1">
          <mxGeometry x="260" y="300" width="160" height="170" as="geometry" />
        </mxCell>
        <mxCell id="Qq9tggKv9AlEWRZSAi5j-6" value="LLM Model config" style="rounded=0;whiteSpace=wrap;html=1;fillColor=#d5e8d4;strokeColor=#82b366;gradientColor=#97d077;" vertex="1" parent="1">
          <mxGeometry x="430" y="100" width="120" height="60" as="geometry" />
        </mxCell>
        <mxCell id="Qq9tggKv9AlEWRZSAi5j-16" value="" style="edgeStyle=orthogonalEdgeStyle;rounded=0;orthogonalLoop=1;jettySize=auto;html=1;entryX=0;entryY=0.5;entryDx=0;entryDy=0;exitX=0.5;exitY=1;exitDx=0;exitDy=0;" edge="1" parent="1" source="Qq9tggKv9AlEWRZSAi5j-7" target="Qq9tggKv9AlEWRZSAi5j-5">
          <mxGeometry relative="1" as="geometry">
            <mxPoint x="180" y="380" as="targetPoint" />
          </mxGeometry>
        </mxCell>
        <mxCell id="Qq9tggKv9AlEWRZSAi5j-7" value="Token Counter" style="rounded=0;whiteSpace=wrap;html=1;fillColor=#dae8fc;strokeColor=#6c8ebf;" vertex="1" parent="1">
          <mxGeometry x="120" y="210" width="120" height="60" as="geometry" />
        </mxCell>
        <mxCell id="Qq9tggKv9AlEWRZSAi5j-22" value="" style="edgeStyle=orthogonalEdgeStyle;rounded=0;orthogonalLoop=1;jettySize=auto;html=1;entryX=1;entryY=0.5;entryDx=0;entryDy=0;exitX=0.5;exitY=1;exitDx=0;exitDy=0;" edge="1" parent="1" source="Qq9tggKv9AlEWRZSAi5j-8" target="Qq9tggKv9AlEWRZSAi5j-5">
          <mxGeometry relative="1" as="geometry">
            <mxPoint x="490" y="380" as="targetPoint" />
          </mxGeometry>
        </mxCell>
        <mxCell id="Qq9tggKv9AlEWRZSAi5j-8" value="Model Spects for MAX TOKEN" style="rounded=0;whiteSpace=wrap;html=1;fillColor=#dae8fc;strokeColor=#6c8ebf;" vertex="1" parent="1">
          <mxGeometry x="430" y="210" width="120" height="60" as="geometry" />
        </mxCell>
        <mxCell id="Qq9tggKv9AlEWRZSAi5j-12" value="YES" style="rounded=1;whiteSpace=wrap;html=1;fillColor=#d5e8d4;gradientColor=#97d077;strokeColor=#82b366;" vertex="1" parent="1">
          <mxGeometry x="350" y="480" width="30" height="30" as="geometry" />
        </mxCell>
        <mxCell id="Qq9tggKv9AlEWRZSAi5j-13" value="De-Duplication Using sentence embed" style="rounded=0;whiteSpace=wrap;html=1;fillColor=#f8cecc;strokeColor=#b85450;" vertex="1" parent="1">
          <mxGeometry x="280" y="670" width="120" height="60" as="geometry" />
        </mxCell>
        <mxCell id="Qq9tggKv9AlEWRZSAi5j-23" value="LLM Model" style="rounded=0;whiteSpace=wrap;html=1;fillColor=#f5f5f5;fontColor=#333333;strokeColor=#666666;" vertex="1" parent="1">
          <mxGeometry x="280" y="780" width="120" height="60" as="geometry" />
        </mxCell>
        <mxCell id="Qq9tggKv9AlEWRZSAi5j-25" value="Reflective agent for Classification" style="rounded=0;whiteSpace=wrap;html=1;fillColor=#fff2cc;strokeColor=#d6b656;" vertex="1" parent="1">
          <mxGeometry x="280" y="900" width="120" height="60" as="geometry" />
        </mxCell>
        <mxCell id="Qq9tggKv9AlEWRZSAi5j-26" style="edgeStyle=orthogonalEdgeStyle;rounded=0;orthogonalLoop=1;jettySize=auto;html=1;entryX=1;entryY=0.383;entryDx=0;entryDy=0;entryPerimeter=0;" edge="1" parent="1" source="Qq9tggKv9AlEWRZSAi5j-25" target="Qq9tggKv9AlEWRZSAi5j-23">
          <mxGeometry relative="1" as="geometry">
            <Array as="points">
              <mxPoint x="420" y="920" />
              <mxPoint x="420" y="803" />
            </Array>
          </mxGeometry>
        </mxCell>
        <mxCell id="Qq9tggKv9AlEWRZSAi5j-29" value="clarification" style="rounded=1;whiteSpace=wrap;html=1;fillColor=#f5f5f5;gradientColor=#b3b3b3;strokeColor=#666666;" vertex="1" parent="1">
          <mxGeometry x="420" y="840" width="70" height="40" as="geometry" />
        </mxCell>
        <mxCell id="Qq9tggKv9AlEWRZSAi5j-30" value="" style="shape=flexArrow;endArrow=classic;html=1;rounded=0;exitX=0.5;exitY=1;exitDx=0;exitDy=0;fillColor=#fff2cc;gradientColor=#ffd966;strokeColor=#d6b656;" edge="1" parent="1" source="Qq9tggKv9AlEWRZSAi5j-25">
          <mxGeometry width="50" height="50" relative="1" as="geometry">
            <mxPoint x="350" y="980" as="sourcePoint" />
            <mxPoint x="340" y="1030" as="targetPoint" />
          </mxGeometry>
        </mxCell>
        <mxCell id="Qq9tggKv9AlEWRZSAi5j-31" value="Final Response" style="ellipse;whiteSpace=wrap;html=1;fillColor=#fad9d5;strokeColor=#ae4132;" vertex="1" parent="1">
          <mxGeometry x="280" y="1030" width="120" height="80" as="geometry" />
        </mxCell>
        <mxCell id="Qq9tggKv9AlEWRZSAi5j-33" value="" style="shape=flexArrow;endArrow=classic;html=1;rounded=0;exitX=0.5;exitY=1;exitDx=0;exitDy=0;entryX=0.493;entryY=-0.04;entryDx=0;entryDy=0;entryPerimeter=0;fillColor=#fff2cc;gradientColor=#ffd966;strokeColor=#d6b656;" edge="1" parent="1" target="Qq9tggKv9AlEWRZSAi5j-25">
          <mxGeometry width="50" height="50" relative="1" as="geometry">
            <mxPoint x="340" y="840" as="sourcePoint" />
            <mxPoint x="340" y="890" as="targetPoint" />
          </mxGeometry>
        </mxCell>
        <mxCell id="Qq9tggKv9AlEWRZSAi5j-34" value="" style="shape=flexArrow;endArrow=classic;html=1;rounded=0;exitX=0.5;exitY=1;exitDx=0;exitDy=0;fillColor=#fff2cc;gradientColor=#ffd966;strokeColor=#d6b656;" edge="1" parent="1" source="Qq9tggKv9AlEWRZSAi5j-13">
          <mxGeometry width="50" height="50" relative="1" as="geometry">
            <mxPoint x="340" y="750" as="sourcePoint" />
            <mxPoint x="340" y="780" as="targetPoint" />
          </mxGeometry>
        </mxCell>
        <mxCell id="Qq9tggKv9AlEWRZSAi5j-35" value="" style="shape=flexArrow;endArrow=classic;html=1;rounded=0;exitX=0.5;exitY=1;exitDx=0;exitDy=0;fillColor=#fff2cc;gradientColor=#ffd966;strokeColor=#d6b656;" edge="1" parent="1" source="Qq9tggKv9AlEWRZSAi5j-3">
          <mxGeometry width="50" height="50" relative="1" as="geometry">
            <mxPoint x="340" y="630" as="sourcePoint" />
            <mxPoint x="340" y="670" as="targetPoint" />
          </mxGeometry>
        </mxCell>
        <mxCell id="Qq9tggKv9AlEWRZSAi5j-36" value="" style="shape=flexArrow;endArrow=classic;html=1;rounded=0;exitX=0.5;exitY=1;exitDx=0;exitDy=0;fillColor=#fff2cc;gradientColor=#ffd966;strokeColor=#d6b656;" edge="1" parent="1">
          <mxGeometry width="50" height="50" relative="1" as="geometry">
            <mxPoint x="339.74" y="470" as="sourcePoint" />
            <mxPoint x="340" y="540" as="targetPoint" />
          </mxGeometry>
        </mxCell>
        <mxCell id="Qq9tggKv9AlEWRZSAi5j-37" value="" style="shape=flexArrow;endArrow=classic;html=1;rounded=0;exitX=0.413;exitY=1.053;exitDx=0;exitDy=0;exitPerimeter=0;fillColor=#fff2cc;strokeColor=#d6b656;gradientColor=#ffd966;" edge="1" parent="1" source="Qq9tggKv9AlEWRZSAi5j-1">
          <mxGeometry width="50" height="50" relative="1" as="geometry">
            <mxPoint x="170" y="180" as="sourcePoint" />
            <mxPoint x="170" y="210" as="targetPoint" />
          </mxGeometry>
        </mxCell>
        <mxCell id="Qq9tggKv9AlEWRZSAi5j-52" value="" style="endArrow=classic;html=1;rounded=0;exitX=0;exitY=1;exitDx=0;exitDy=0;" edge="1" parent="1" source="Qq9tggKv9AlEWRZSAi5j-5">
          <mxGeometry width="50" height="50" relative="1" as="geometry">
            <mxPoint x="230" y="500" as="sourcePoint" />
            <mxPoint x="130" y="600" as="targetPoint" />
          </mxGeometry>
        </mxCell>
        <mxCell id="Qq9tggKv9AlEWRZSAi5j-53" value="No action required" style="rounded=1;whiteSpace=wrap;html=1;fillColor=#f5f5f5;strokeColor=#666666;gradientColor=#b3b3b3;" vertex="1" parent="1">
          <mxGeometry x="60" y="600" width="120" height="60" as="geometry" />
        </mxCell>
        <mxCell id="Qq9tggKv9AlEWRZSAi5j-54" value="NO" style="rounded=1;whiteSpace=wrap;html=1;fillColor=#d5e8d4;gradientColor=#97d077;strokeColor=#82b366;" vertex="1" parent="1">
          <mxGeometry x="190" y="470" width="40" height="30" as="geometry" />
        </mxCell>
        <mxCell id="Qq9tggKv9AlEWRZSAi5j-56" value="" style="endArrow=classic;html=1;rounded=0;exitX=0.5;exitY=1;exitDx=0;exitDy=0;entryX=0;entryY=0.5;entryDx=0;entryDy=0;" edge="1" parent="1" source="Qq9tggKv9AlEWRZSAi5j-53" target="Qq9tggKv9AlEWRZSAi5j-23">
          <mxGeometry width="50" height="50" relative="1" as="geometry">
            <mxPoint x="155" y="830" as="sourcePoint" />
            <mxPoint x="205" y="780" as="targetPoint" />
          </mxGeometry>
        </mxCell>
        <mxCell id="Qq9tggKv9AlEWRZSAi5j-60" value="" style="shape=flexArrow;endArrow=classic;html=1;rounded=0;exitX=0.413;exitY=1.053;exitDx=0;exitDy=0;exitPerimeter=0;fillColor=#fff2cc;gradientColor=#ffd966;strokeColor=#d6b656;" edge="1" parent="1">
          <mxGeometry width="50" height="50" relative="1" as="geometry">
            <mxPoint x="490" y="160" as="sourcePoint" />
            <mxPoint x="490" y="207" as="targetPoint" />
          </mxGeometry>
        </mxCell>
      </root>
    </mxGraphModel>
  </diagram>
</mxfile>
